<svg xmlns="http://www.w3.org/2000/svg" width="24" height="24" viewBox="0 0 24 24" fill="none">
  <path d="M17 20H22V18C22 16.3431 20.6569 15 19 15C18.0444 15 17.1931 15.4468 16.6438 16.1429M17 20H7M17 20V18C17 17.3438 16.8736 16.717 16.6438 16.1429M16.6438 16.1429C15.6438 14.4328 13.9538 13.25 12 13.25C10.0462 13.25 8.35625 14.4328 7.35625 16.1429M7 20H2V18C2 16.3431 3.34315 15 5 15C5.95561 15 6.80686 15.4468 7.35625 16.1429M7 20V18C7 17.3438 7.12642 16.717 7.35625 16.1429M19 12C20.6569 12 22 10.6569 22 9C22 7.34315 20.6569 6 19 6C17.3431 6 16 7.34315 16 9C16 10.6569 17.3431 12 19 12ZM5 12C6.65685 12 8 10.6569 8 9C8 7.34315 6.65685 6 5 6C3.34315 6 2 7.34315 2 9C2 10.6569 3.34315 12 5 12ZM12 11C13.6569 11 15 9.65685 15 8C15 6.34315 13.6569 5 12 5C10.3431 5 9 6.34315 9 8C9 9.65685 10.3431 11 12 11Z" stroke="currentColor" stroke-width="2" stroke-linecap="round" stroke-linejoin="round"/>
</svg>
