<svg xmlns="http://www.w3.org/2000/svg" xmlns:xlink="http://www.w3.org/1999/xlink" fill="none" version="1.1" width="10" height="16" viewBox="0 0 10 16"><defs><clipPath id="master_svg0_25_0055"><rect x="0" y="0" width="10" height="16" rx="0"/></clipPath><mask id="master_svg1_25_0056" style="mask-type:alpha" maskUnits="objectBoundingBox"><g><rect x="0" y="0" width="10" height="16" rx="0" fill="#FFFFFF" fill-opacity="1"/></g></mask></defs><g clip-path="url(#master_svg0_25_0055)" mask="url(#master_svg1_25_0056)"><g transform="matrix(1,0,0,-1,0,32.74997329711914)"><g><path d="M2.26027,23.03123664855957C2.26027,23.03123664855957,2.26027,16.37498664855957,2.26027,16.37498664855957C2.26027,16.37498664855957,2.26027,23.03123664855957,2.26027,23.03123664855957C2.26027,23.03123664855957,2.26027,16.37498664855957,2.26027,16.37498664855957C2.26027,16.37498664855957,6.23288,16.37498664855957,6.23288,16.37498664855957C6.23288,16.37498664855957,6.23288,23.03123664855957,6.23288,23.03123664855957C6.23288,23.03123664855957,9.21233,23.03123664855957,9.21233,23.03123664855957C9.21233,23.03123664855957,9.82877,26.09373664855957,9.82877,26.09373664855957C9.82877,26.09373664855957,6.23288,26.09373664855957,6.23288,26.09373664855957C6.23288,26.09373664855957,6.23288,27.156286648559572,6.23288,27.156286648559572C6.23288,28.343786648559572,6.81507,28.87498664855957,6.81507,28.87498664855957C7.39726,29.406286648559572,8.73288,29.406286648559572,8.73288,29.406286648559572C9.58904,29.406286648559572,10,29.343786648559572,10,29.343786648559572C10,29.343786648559572,10,32.12498664855957,10,32.12498664855957C9.58904,32.21878664855957,8.86986,32.31248664855957,8.86986,32.31248664855957C8.15069,32.37498664855957,7.60274,32.37498664855957,7.60274,32.37498664855957C2.19178,32.43748664855957,2.26027,27.406286648559572,2.26027,27.406286648559572C2.26027,27.406286648559572,2.26027,26.06248664855957,2.26027,26.06248664855957C2.26027,26.06248664855957,0,26.06248664855957,0,26.06248664855957C0,26.06248664855957,0,23.03123664855957,0,23.03123664855957C0,23.03123664855957,2.26027,23.03123664855957,2.26027,23.03123664855957Z" fill="#FFFFFF" fill-opacity="1"/></g></g></g></svg>