<svg xmlns="http://www.w3.org/2000/svg" xmlns:xlink="http://www.w3.org/1999/xlink" fill="none" version="1.1" width="14" height="16" viewBox="0 0 14 16"><defs><clipPath id="master_svg0_25_0065"><rect x="0" y="0" width="14" height="16" rx="0"/></clipPath><mask id="master_svg1_25_0066" style="mask-type:alpha" maskUnits="objectBoundingBox"><g><rect x="0" y="0" width="14" height="16" rx="0" fill="#FFFFFF" fill-opacity="1"/></g></mask></defs><g clip-path="url(#master_svg0_25_0065)" mask="url(#master_svg1_25_0066)"><g transform="matrix(1,0,0,-1,0,30.75)"><g><path d="M13.9688,25.25C13.9688,26.9688,12.8125,28.1875,12.8125,28.1875C11.5938,29.3438,9.90625,29.3438,9.90625,29.3438C9.28125,29.375,8.125,29.375,8.125,29.375L5.875,29.375C4.71875,29.375,4.125,29.3438,4.125,29.3438C2.4375,29.3438,1.1875,28.1875,1.1875,28.1875C0.03125,26.9688,0.0625,25.28125,0.0625,25.28125C0,24.65625,0,23.5,0,23.5L0,21.25C0,20.125,0.0625,19.5,0.0625,19.5C0.03125,17.78125,1.1875,16.5625,1.1875,16.5625C2.40625,15.40625,4.125,15.4375,4.125,15.4375C4.71875,15.40625,5.875,15.375,5.875,15.375L8.125,15.375C9.28125,15.40625,9.90625,15.4375,9.90625,15.4375C11.5938,15.40625,12.8125,16.5625,12.8125,16.5625C13.9688,17.78125,13.9688,19.5,13.9688,19.5C14,20.125,14,21.25,14,21.25L14,23.5C14,24.65625,13.9688,25.28125,13.9688,25.28125L13.9688,25.25ZM11.125,16.90625C11.125,16.90625,12.0625,17.3125,12.4688,18.25C12.4688,18.25,12.6875,18.875,12.7188,19.9375C12.7188,19.9375,12.7812,21,12.75,21.875L12.75,22.875C12.75,22.875,12.7812,23.75,12.7188,24.8125C12.7188,24.8125,12.6875,25.875,12.4688,26.5C12.4688,26.5,12.0625,27.4375,11.125,27.8438C11.125,27.8438,10.5,28.0625,9.4375,28.0938C9.4375,28.0938,8.375,28.125,7.5,28.125L6.5,28.125C6.5,28.125,5.625,28.1562,4.5625,28.0938C4.5625,28.0938,3.53125,28.0625,2.875,27.8438C2.875,27.8438,1.9375,27.4375,1.53125,26.5C1.53125,26.5,1.3125,25.875,1.28125,24.8125C1.28125,24.8125,1.25,23.75,1.25,22.875L1.25,21.875C1.25,21.875,1.25,21,1.28125,19.9375C1.28125,19.9375,1.3125,18.90625,1.53125,18.25C1.53125,18.25,1.9375,17.3125,2.875,16.90625C2.875,16.90625,3.53125,16.6875,4.5625,16.65625C4.5625,16.65625,5.625,16.625,6.5,16.625L7.5,16.625C7.5,16.625,8.375,16.625,9.4375,16.65625C9.4375,16.65625,10.5,16.6875,11.125,16.90625ZM7,25.9688C5.46875,25.9375,4.46875,24.90625,4.46875,24.90625C3.4375,23.90625,3.40625,22.375,3.40625,22.375C3.4375,20.84375,4.46875,19.84375,4.46875,19.84375C5.46875,18.8125,7,18.78125,7,18.78125C8.53125,18.8125,9.53125,19.84375,9.53125,19.84375C10.5625,20.84375,10.5938,22.375,10.5938,22.375C10.5625,23.90625,9.53125,24.90625,9.53125,24.90625C8.53125,25.9375,7,25.9688,7,25.9688ZM5.34375,20.71875C5.34375,20.71875,6,20.0625,7,20.03125C7,20.03125,8,20.0625,8.65625,20.71875C8.65625,20.71875,9.3125,21.375,9.34375,22.375C9.34375,22.375,9.3125,23.375,8.65625,24.03125C8.65625,24.03125,8,24.6875,7,24.71875C7,24.71875,6,24.6875,5.34375,24.03125C5.34375,24.03125,4.6875,23.375,4.65625,22.375C4.65625,22.375,4.6875,21.375,5.34375,20.71875ZM11.5938,26.125C11.5,25.34375,10.75,25.28125,10.75,25.28125C9.96875,25.34375,9.90625,26.125,9.90625,26.125C9.90625,26.4688,10.1562,26.7188,10.1562,26.7188C10.375,26.9375,10.75,26.9375,10.75,26.9375C11.0938,26.9375,11.3438,26.7188,11.3438,26.7188C11.5625,26.4688,11.5938,26.125,11.5938,26.125Z" fill-rule="evenodd" fill="#FFFFFF" fill-opacity="1"/></g></g></g></svg>