<svg xmlns="http://www.w3.org/2000/svg" xmlns:xlink="http://www.w3.org/1999/xlink" fill="none" version="1.1" width="14" height="16" viewBox="0 0 14 16"><defs><clipPath id="master_svg0_25_0074"><rect x="0" y="0" width="14" height="16" rx="0"/></clipPath><mask id="master_svg1_25_0080" style="mask-type:alpha" maskUnits="objectBoundingBox"><g><rect x="0" y="0" width="14" height="16" rx="0" fill="#FFFFFF" fill-opacity="1"/></g></mask></defs><g clip-path="url(#master_svg0_25_0074)" mask="url(#master_svg1_25_0080)"><g transform="matrix(1,0,0,-1,0,28.749969482421875)"><g><path d="M3.11111,14.374984741210938L0.217778,14.374984741210938L0.217778,23.718734741210938L3.11111,23.718734741210938L3.11111,14.374984741210938ZM11.0444,14.374984741210938L13.9378,14.374984741210938L13.9378,19.499984741210938C13.9378,19.499984741210938,14,21.437484741210938,13.3156,22.687484741210938C13.3156,22.687484741210938,12.6,23.906234741210938,10.4844,23.968734741210938C10.4844,23.968734741210938,9.42667,23.937484741210938,8.71111,23.468734741210938C8.71111,23.468734741210938,8.02667,23.031234741210938,7.74667,22.437484741210938L7.71556,22.437484741210938L7.71556,23.718734741210938L4.91556,23.718734741210938L4.91556,14.374984741210938L7.80889,14.374984741210938L7.80889,18.999984741210938C7.80889,18.999984741210938,7.77778,19.937484741210938,8.12,20.656234741210938C8.12,20.656234741210938,8.46222,21.374984741210938,9.55111,21.406234741210938C9.55111,21.406234741210938,10.6089,21.343734741210938,10.8578,20.562484741210938C10.8578,20.562484741210938,11.1067,19.781234741210938,11.0444,18.937484741210938L11.0444,14.374984741210938ZM1.68,24.999984741210938C0.964444,25.03128474121094,0.497778,25.499984741210938,0.497778,25.499984741210938C0.0311111,25.96878474121094,0,26.687484741210938,0,26.687484741210938C0.0311111,27.656184741210936,0.84,28.156184741210936,0.84,28.156184741210936C1.68,28.59378474121094,2.52,28.156184741210936,2.52,28.156184741210936C3.32889,27.656184741210936,3.36,26.687484741210938,3.36,26.687484741210938C3.32889,25.96878474121094,2.86222,25.499984741210938,2.86222,25.499984741210938C2.39556,25.03128474121094,1.68,24.999984741210938,1.68,24.999984741210938Z" fill-rule="evenodd" fill="#FFFFFF" fill-opacity="1"/></g></g></g></svg>