<svg xmlns="http://www.w3.org/2000/svg" xmlns:xlink="http://www.w3.org/1999/xlink" fill="none" version="1.1" width="40" height="40" viewBox="0 0 40 40"><defs><clipPath id="master_svg0_25_994"><rect x="0" y="0" width="40" height="40" rx="0"/></clipPath></defs><g clip-path="url(#master_svg0_25_994)"><g transform="matrix(-1,0,0,1,73.333251953125,0)"><g transform="matrix(-1,0,0,1,88.332763671875,0)"><path d="M44.6968658359375,28.63648716986084L52.1967118359375,36.13633316986084L51.1360518359375,37.19699316986084L43.6360518359375,29.69699316986084Q43.5305628359375,29.59150416986084,43.4734718359375,29.45367616986084Q43.4163818359375,29.31584716986084,43.4163818359375,29.16666316986084Q43.4163818359375,29.09279466986084,43.4307928359375,29.02034516986084Q43.4452038359375,28.94789616986084,43.4734718359375,28.879650169860838Q43.5017408359375,28.81140516986084,43.5427798359375,28.74998516986084Q43.5838188359375,28.68856616986084,43.6360518359375,28.63633316986084Q43.6882848359375,28.58410016986084,43.7497038359375,28.54306116986084Q43.8111238359375,28.50202216986084,43.8793688359375,28.47375316986084Q43.9476148359375,28.44548516986084,44.0200638359375,28.43107416986084Q44.0925133359375,28.41666316986084,44.1663818359375,28.41666316986084Q44.3155658359375,28.41666316986084,44.4533948359375,28.47375316986084Q44.5912228359375,28.53084416986084,44.6967118359375,28.63633316986084L44.6968658359375,28.63648716986084Z" fill-rule="evenodd" fill="#15151E" fill-opacity="1"/></g><g transform="matrix(-1,0,0,1,139.999755859375,0)"><path d="M73.8629479296875,29.470233015441895Q78.4760079296875,34.083333015441895,84.9998779296875,34.083333015441895Q91.5237779296875,34.083333015441895,96.1367779296875,29.470233015441895Q100.7498779296875,24.857233015441896,100.7498779296875,18.333333015441895Q100.7498779296875,11.809473015441894,96.1367779296875,7.196403015441895Q91.5237779296875,2.5833330154418945,84.9998779296875,2.5833340154418947Q78.4760179296875,2.5833330154418945,73.8629479296875,7.196403015441895Q69.2498779296875,11.809463015441894,69.2498789296875,18.333333015441895Q69.2498779296875,24.857233015441896,73.8629479296875,29.470233015441895ZM95.0761779296875,28.409633015441894Q90.9023779296875,32.583333015441895,84.9998779296875,32.583333015441895Q79.0973279296875,32.583333015441895,74.9236079296875,28.409633015441894Q70.7498779296875,24.235833015441894,70.7498789296875,18.333333015441895Q70.7498819296875,12.430793015441894,74.9236079296875,8.257063015441894Q79.0973379296875,4.0833330154418945,84.9998779296875,4.083334015441895Q90.9023779296875,4.083337015441894,95.0761779296875,8.257063015441894Q99.2498779296875,12.430793015441894,99.2498779296875,18.333333015441895Q99.2498779296875,24.235833015441894,95.0761779296875,28.409633015441894Z" fill-rule="evenodd" fill="#15151E" fill-opacity="1"/></g></g></g></svg>