<svg xmlns="http://www.w3.org/2000/svg" xmlns:xlink="http://www.w3.org/1999/xlink" fill="none" version="1.1" width="35" height="36" viewBox="0 0 35 36"><defs><clipPath id="master_svg0_25_997"><rect x="0" y="0" width="35" height="36" rx="0"/></clipPath></defs><g clip-path="url(#master_svg0_25_997)"><g><path d="M28.437479296875,35.999952587890625C27.841179296875,36.00045258789063,27.304579296875,35.62735258789063,27.082679296875,35.057952587890625L25.851879296875,31.888452587890626L22.766079296875,30.551952587890625C22.224879296875,30.306152587890626,21.879879296875,29.750252587890625,21.891079296875,29.141752587890625C21.902179296875,28.533352587890626,22.267279296875,27.991252587890624,22.817079296875,27.766452587890626L25.862079296875,26.579952587890624L27.082679296875,23.441952587890626C27.312279296875,22.881352587890625,27.846079296875,22.516752587890625,28.437479296875,22.516752587890625C29.028979296875,22.516752587890625,29.562779296875,22.881352587890625,29.792279296875,23.441952587890626L31.018779296875,26.591952587890624L34.081279296875,27.853452587890626C34.627479296875,28.088552587890625,34.983079296875,28.637952587890624,34.983079296875,29.246952587890625C34.983079296875,29.856052587890623,34.627479296875,30.405452587890625,34.081279296875,30.640452587890625L31.018779296875,31.901952587890626L29.792279296875,35.051952587890625C29.572279296875,35.62375258789063,29.035379296875,35.99945258789062,28.437479296875,35.999952587890625ZM14.583379296875,31.499952587890625C13.289279296875,31.515952587890624,12.139779296875,30.653052587890624,11.759979296875,29.380452587890623L9.406259296875,21.809952587890624L2.022719296875,19.268952587890624C0.799936296875,18.848652587890626,-0.018268303125,17.663252587890625,-0.000950747125,16.337252587890625C0.016366496875,15.011252587890626,0.865232296875,13.848952587890626,2.098549296875,13.462452587890626L9.423759296875,11.161452587890626L11.891279296875,3.580492587890625C12.268579296875,2.299682587890625,13.440779296875,1.443842587890625,14.740879296875,1.499992587890625C16.035079296875,1.501802587890625,17.173379296875,2.380692587890625,17.536479296875,3.658492587890625L19.770679296875,11.180952587890625L27.106079296875,13.595952587890626C28.319379296875,14.014552587890625,29.136979296875,15.183652587890625,29.136979296875,16.499952587890625C29.136979296875,17.816252587890624,28.319379296875,18.985452587890624,27.106079296875,19.403952587890625L19.757479296875,21.821952587890625L17.406679296875,29.380452587890623C17.026979296875,30.653052587890624,15.877379296875,31.515952587890624,14.583379296875,31.499952587890625ZM14.746679296875,4.534492587890625L11.958379296875,12.845952587890626C11.809179296875,13.306352587890625,11.452779296875,13.663952587890625,11.001679296875,13.805952587890625L2.950219296875,16.331952587890626L11.030879296875,19.207452587890625C11.471779296875,19.358652587890624,11.816279296875,19.716852587890624,11.958379296875,20.171952587890626L14.539579296875,28.466952587890624L17.208379296875,20.171952587890626C17.351979296875,19.709852587890627,17.704079296875,19.347752587890625,18.153379296875,19.199952587890625L26.217879296875,16.546452587890624C26.228279296875,16.543552587890623,26.238079296875,16.539052587890627,26.247079296875,16.532952587890627L18.153379296875,13.799952587890624C17.697379296875,13.650052587890626,17.342079296875,13.279452587890624,17.202479296875,12.808452587890624L14.746679296875,4.534492587890625ZM29.895879296875,10.499952587890625C29.226979296875,10.499952587890625,28.643779296875,10.031852587890626,28.481279296875,9.364492587890625L27.960679296875,7.219492587890625L25.870879296875,6.642002587890625C25.224579296875,6.463402587890625,24.779379296875,5.855302587890625,24.791079296875,5.167082587890625C24.802879296875,4.478872587890625,25.268479296875,3.887192587890625,25.920379296875,3.731992587890625L27.962079296875,3.244492587890625L28.481279296875,1.135492587890625C28.643879296875,0.468162587890625,29.226979296875,0.000152587890625,29.895879296875,0.000152587890625C30.564679296875,0.000152745542625,31.147779296875,0.468162587890625,31.310379296875,1.135492587890625L31.826679296875,3.262492587890625L33.894579296875,3.794992587890625C34.543379296875,3.962242587890625,34.998379296875,4.562022587890625,34.998379296875,5.250002587890625C34.998379296875,5.937972587890625,34.543379296875,6.537752587890625,33.894579296875,6.704992587890625L31.826679296875,7.237502587890625L31.310379296875,9.364492587890625C31.147879296875,10.031952587890625,30.564679296875,10.499952587890625,29.895879296875,10.499952587890625Z" fill="#4053FF" fill-opacity="1" style="mix-blend-mode:passthrough"/></g></g></svg>