<svg xmlns="http://www.w3.org/2000/svg" xmlns:xlink="http://www.w3.org/1999/xlink" fill="none" version="1.1" width="16" height="16" viewBox="0 0 16 16"><defs><clipPath id="master_svg0_25_0081"><rect x="0" y="0" width="16" height="16" rx="0"/></clipPath><mask id="master_svg1_25_0082" style="mask-type:alpha" maskUnits="objectBoundingBox"><g><rect x="0" y="0" width="16" height="16" rx="0" fill="#FFFFFF" fill-opacity="1"/></g></mask></defs><g clip-path="url(#master_svg0_25_0081)" mask="url(#master_svg1_25_0082)"><g transform="matrix(1,0,0,-1,0,29.75)"><g><path d="M14.3438,24.625C14.375,24.40625,14.375,24.21875,14.375,24.21875C14.375,22,13.2812,19.875,13.2812,19.875C12.2188,17.75,10.125,16.34375,10.125,16.34375C8.0625,14.9375,5.03125,14.875,5.03125,14.875C2.21875,14.90625,0,16.34375,0,16.34375C0.375,16.3125,0.78125,16.3125,0.78125,16.3125C3.125,16.34375,4.875,17.71875,4.875,17.71875C3.75,17.75,2.9375,18.375,2.9375,18.375C2.125,19,1.8125,19.96875,1.8125,19.96875C2.09375,19.9375,2.40625,19.9375,2.40625,19.9375C2.875,19.9375,3.28125,20.03125,3.28125,20.03125C2.125,20.28125,1.40625,21.15625,1.40625,21.15625C0.6875,22.03125,0.65625,23.25,0.65625,23.25C0.65625,23.25,0.65625,23.3125,0.65625,23.3125C1.3125,22.9375,2.125,22.875,2.125,22.875C0.75,23.84375,0.65625,25.625,0.65625,25.625C0.6875,26.5312,1.125,27.2812,1.125,27.2812C2.34375,25.7812,4.09375,24.875,4.09375,24.875C5.8125,23.96875,7.875,23.84375,7.875,23.84375C7.8125,24.21875,7.8125,24.59375,7.8125,24.59375C7.84375,25.9688,8.75,26.9062,8.75,26.9062C9.6875,27.8438,11.0625,27.875,11.0625,27.875C12.5312,27.8438,13.4688,26.8438,13.4688,26.8438C14.5938,27.0625,15.5625,27.625,15.5625,27.625C15.1562,26.4688,14.125,25.8125,14.125,25.8125C15.0938,25.9375,16,26.3438,16,26.3438C15.3125,25.3438,14.3438,24.625,14.3438,24.625Z" fill="#FFFFFF" fill-opacity="1"/></g></g></g></svg>