<svg xmlns="http://www.w3.org/2000/svg" xmlns:xlink="http://www.w3.org/1999/xlink" fill="none" version="1.1" width="27" height="24" viewBox="0 0 27 24"><defs><clipPath id="master_svg0_25_999"><rect x="0" y="0" width="27" height="24" rx="0"/></clipPath><mask id="master_svg1_25_0000" style="mask-type:alpha" maskUnits="objectBoundingBox"><g><rect x="0" y="0" width="27" height="24" rx="0" fill="#FFFFFF" fill-opacity="1"/></g></mask></defs><g clip-path="url(#master_svg0_25_999)" mask="url(#master_svg1_25_0000)"><g transform="matrix(1,0,0,-1,0,43.03125)"><g><path d="M0.890625,38.625025C0.890625,38.625025,0.046875,37.781225,0,36.515625L0,24.515625C0,24.515625,0.046875,23.250005,0.890625,22.40625C0.890625,22.40625,1.73438,21.5625,3,21.515625L15,21.515625C15,21.515625,16.2656,21.5625,17.1094,22.40625C17.1094,22.40625,17.9531,23.250005,18,24.515625L18,36.515625C18,36.515625,17.9531,37.781225,17.1094,38.625025C17.1094,38.625025,16.2656,39.468725,15,39.515625L3,39.515625C3,39.515625,1.73438,39.468725,0.890625,38.625025ZM27,36.515625C27,36.515625,26.9531,37.406225,26.2031,37.828125C26.2031,37.828125,25.4062,38.203125,24.6562,37.781225L20.1562,34.781225L19.5,34.312525L19.5,26.718745L20.1562,26.250005L24.6562,23.250005C24.6562,23.250005,25.4062,22.781245,26.2031,23.203125C26.2031,23.203125,26.9531,23.625005,27,24.515625L27,36.515625Z" fill-rule="evenodd" fill="#2F44FF" fill-opacity="0.8999999761581421"/></g></g></g></svg>