<svg xmlns="http://www.w3.org/2000/svg" xmlns:xlink="http://www.w3.org/1999/xlink" fill="none" version="1.1" width="56.568541526794434" height="56.568541526794434" viewBox="0 0 56.568541526794434 56.568541526794434"><defs><clipPath id="master_svg0_25_993"><rect x="0" y="28.284270763397217" width="40" height="40" rx="0"/></clipPath></defs><g transform="matrix(0.7071067690849304,-0.7071067690849304,0.7071067690849304,0.7071067690849304,-19.999999315429164,8.284271447968052)" clip-path="url(#master_svg0_25_993)"><g transform="matrix(0,1,1,0,-33.28365421295166,33.28365421295166)"><g transform="matrix(0,1,1,0,-24.95028018951416,24.95028018951416)"><path d="M15.000253200531006,38.950533390045166L40.000253200531006,38.95053439004516Q40.09875320053101,38.95053439004516,40.195353200531,38.96974839004517Q40.291953200531005,38.988963390045164,40.382953200531006,39.02665439004517Q40.47395320053101,39.06434539004517,40.555853200531004,39.11906439004517Q40.63775320053101,39.173783390045166,40.707353200531,39.24342739004516Q40.77695320053101,39.31307139004517,40.831753200531004,39.39496339004516Q40.88645320053101,39.476856390045164,40.92415320053101,39.567850390045166Q40.96185320053101,39.65884439004517,40.98105320053101,39.755443390045166Q41.000253200531006,39.85204209004517,41.000253200531006,39.950533390045166Q41.000253200531006,40.04902489004517,40.98105320053101,40.145623390045166Q40.96185320053101,40.242222390045164,40.92415320053101,40.333217390045164Q40.88645320053101,40.424211390045166,40.831753200531004,40.50610439004517Q40.77695320053101,40.58799639004516,40.707353200531,40.65764039004517Q40.63775320053101,40.72728439004516,40.555853200531004,40.78200339004517Q40.47395320053101,40.83672239004517,40.382953200531006,40.87441339004516Q40.291953200531005,40.912104390045165,40.195353200531,40.93131939004517Q40.09875320053101,40.950533390045166,40.000253200531006,40.950533390045166L15.000253200531006,40.950533390045166Q14.901761800531006,40.950533390045166,14.805163200531005,40.93131839004516Q14.708564200531006,40.91210339004517,14.617570200531006,40.874412390045165Q14.526575200531006,40.83672139004516,14.444683200531006,40.78200339004517Q14.362790200531006,40.72728439004516,14.293146200531005,40.65764039004517Q14.223502200531005,40.58799639004516,14.168783200531006,40.50610339004517Q14.114065200531005,40.424211390045166,14.076374200531006,40.333216390045166Q14.038683200531006,40.242222390045164,14.019468200531005,40.145623390045166Q14.000253200531006,40.049024790045166,14.000253200531006,39.950533390045166Q14.000253200531006,39.852041990045166,14.019468200531005,39.755443390045166Q14.038683200531006,39.65884439004517,14.076374200531006,39.567850390045166Q14.114065200531005,39.476855390045166,14.168783200531006,39.39496339004516Q14.223502200531005,39.31307039004517,14.293146200531005,39.243426390045165Q14.362790200531006,39.17378239004517,14.444683200531006,39.11906339004516Q14.526575200531006,39.06434539004517,14.617570200531006,39.02665439004517Q14.708564200531006,38.988963390045164,14.805163200531005,38.96974839004517Q14.901761800531006,38.950533390045166,15.000253200531006,38.950533390045166Z" fill-rule="evenodd" fill="#FFFFFF" fill-opacity="1"/></g><g transform="matrix(0,1,1,0,-51.61653995513916,51.61653995513916)"><path d="M7.374227247406006,57.57655320254516L11.540771247406006,61.74310120254517L14.994641247406006,65.19697120254517L15.005591247406006,65.20792120254517Q15.342641247406005,65.54494120254516,15.465931247406006,65.70633120254517Q15.795511247406006,66.13778120254517,15.795511247406006,66.61687120254517Q15.795511247406006,67.09596120254517,15.465931247406006,67.52741120254517Q15.342641247406005,67.68881120254517,15.005601247406005,68.02582120254516L14.994641247406006,68.03678120254517L11.540781247406006,71.49064120254516L7.3750102474060055,75.65644120254517L7.374108247406006,75.65734120254517Q7.233456247406006,75.79794120254516,7.049685247406006,75.87404120254516Q6.865914247406006,75.95024120254516,6.667001247406006,75.95024120254516Q6.5685098474060055,75.95024120254516,6.471911247406005,75.93094120254517Q6.375312247406006,75.91174120254516,6.284318247406006,75.87404120254516Q6.193323247406006,75.83644120254516,6.1114312474060055,75.78164120254516Q6.0295382474060055,75.72694120254516,5.959894247406006,75.65734120254517Q5.890250247406006,75.58764120254517,5.8355312474060055,75.50574120254517Q5.780813247406006,75.42384120254516,5.7431222474060055,75.33284120254517Q5.705431247406006,75.24194120254516,5.686216247406006,75.14534120254517Q5.667001247406006,75.04874120254516,5.667001247406006,74.95024120254516Q5.667001247406006,74.75134120254516,5.7431222474060055,74.56754120254516Q5.819242247406006,74.38374120254517,5.959895247406006,74.24314120254516L10.126561247406006,70.07644120254517L13.580431247406006,66.62257120254516L13.586121247406005,66.61687120254517L13.580431247406006,66.61118120254517L10.126561247406006,63.157311202545166L5.959894247406006,58.99064820254517Q5.819242247406006,58.849996202545164,5.743121247406005,58.666224202545166Q5.667001247406006,58.482453202545166,5.667001247406006,58.283541202545166Q5.667001247406006,58.185049802545166,5.686216247406006,58.088451202545166Q5.705431247406006,57.99185220254517,5.7431222474060055,57.900858202545166Q5.780813247406006,57.809863202545166,5.8355312474060055,57.72797120254516Q5.890250247406006,57.64607820254517,5.959894247406006,57.576434202545165Q6.0295382474060055,57.50679020254517,6.1114312474060055,57.45207120254516Q6.193323247406006,57.39735320254517,6.284318247406006,57.35966220254517Q6.375312247406006,57.321971202545164,6.471911247406005,57.30275620254517Q6.5685098474060055,57.283541202545166,6.667001247406006,57.283541202545166Q6.865913247406006,57.283541202545166,7.049684247406006,57.35966120254517Q7.233456247406006,57.43578220254516,7.374108247406006,57.576434202545165L7.374227247406006,57.57655320254516Z" fill-rule="evenodd" fill="#FFFFFF" fill-opacity="1"/></g></g></g></svg>