<svg xmlns="http://www.w3.org/2000/svg" xmlns:xlink="http://www.w3.org/1999/xlink" fill="none" version="1.1" width="35" height="35" viewBox="0 0 35 35"><defs><clipPath id="master_svg0_25_0023"><rect x="0" y="0" width="35" height="35" rx="0"/></clipPath></defs><g clip-path="url(#master_svg0_25_0023)"><g><path d="M0.4271745625,34.5727C0.9973825625,35.1429,1.9190465625,35.1429,2.4892565625,34.5727L4.0598865625,33.0021L6.5769665625,30.485L10.6398765625,34.5479C10.9913765625,34.9023,11.5046765625,35.0481,11.9873765625,34.9417C12.4729765625,34.8337,12.8711765625,34.4852,13.0417765625,34.0156L17.8002765625,20.9358C18.1911765625,19.8596,17.9315765625,18.6885,17.1206765625,17.8777C16.3127765625,17.0683,15.1431765625,16.8073,14.0640765625,17.201L0.9857155625,21.9581C0.5175905625,22.1273,0.1675905625,22.5269,0.0596743625,23.0125C-0.0467839375,23.4996,0.0990493625,24.0085,0.4534245625,24.36L4.5163365625,28.4229L1.9992565625,30.94L0.4286325625,32.5106C-0.1415754375,33.0808,-0.1415754375,34.0025,0.4286325625,34.5727L0.4271745625,34.5727ZM21.8631765625,21.8808C21.5540765625,21.1356,21.9069765625,20.2825,22.6506765625,19.9733C28.4796765625,17.5817,26.7194765625,8.73396,20.4165765625,8.75C18.0452765625,8.75,15.9277765625,10.166,15.0221765625,12.3579C14.7144765625,13.1046,13.8598765625,13.456,13.1175765625,13.1483C12.3723765625,12.8406,12.0194765625,11.989,12.3271765625,11.2438C13.6848765625,7.95667,16.8596765625,5.83334,20.4165765625,5.83334C29.9117765625,5.88292,32.5206765625,19.0021,23.7692765625,22.6683C23.5869765625,22.7442,23.3973765625,22.7792,23.2106765625,22.7792C22.6390765625,22.7792,22.0965765625,22.4423,21.8631765625,21.8808ZM18.9581765625,27.7083C18.9581765625,26.9019,19.6115765625,26.25,20.4165765625,26.25C35.8573765625,25.7017,35.8544765625,3.46208,20.4165765625,2.91667C13.9838765625,2.91667,8.7498865625,8.15062,8.7498865625,14.5833C8.7498865625,15.3898,8.0980065625,16.0417,7.2915465625,16.0417C6.4850965625,16.0417,5.8332165625,15.3898,5.8332165625,14.5833C5.8332165625,6.54208,12.3752765625,0.00000104308,20.4165765625,0.00000104308C39.7365765625,0.733543,39.7321765625,28.436,20.4165765625,29.1667C19.6115765625,29.1667,18.9581765625,28.5148,18.9581765625,27.7083Z" fill="#4053FF" fill-opacity="1" style="mix-blend-mode:passthrough"/></g></g></svg>