<svg xmlns="http://www.w3.org/2000/svg" xmlns:xlink="http://www.w3.org/1999/xlink" fill="none" version="1.1" width="23.97900390625" height="31" viewBox="0 0 23.97900390625 31"><g><g><g><path d="M6.889733464355469,11.5657L6.889733464355469,10.0359C6.396583464355469,9.70694,5.967063464355469,9.28686,5.622433464355469,8.79153C5.067943464355469,7.99443,4.774833464355469,7.05765,4.774833464355469,6.08254C4.774833464355469,3.4631,6.905903464355468,1.33203,9.525343464355469,1.33203C12.144783464355468,1.33203,14.275863464355469,3.4631,14.275863464355469,6.08254C14.275863464355469,7.70635,13.470663464355468,9.17073,12.161013464355468,10.0378L12.161013464355468,10.7478C12.545663464355469,10.528,12.99080346435547,10.4023,13.46466346435547,10.4023C13.574263464355468,10.4023,13.682263464355469,10.4091,13.788363464355468,10.4222C14.057363464355468,10.1575,14.302963464355468,9.86672,14.52176346435547,9.55224C15.23226346435547,8.53075,15.607863464355468,7.33101,15.607863464355468,6.0826C15.60796346435547,2.72861,12.879333464355469,0,9.525403464355469,0C6.1714734643554685,0,3.4428634643554688,2.72861,3.4428634643554688,6.08254C3.4428634643554688,7.33095,3.8184354643554688,8.53075,4.529013464355469,9.55218C5.134183464355469,10.4222,5.944173464355469,11.1115,6.889733464355469,11.5657Z" fill="#33CCCC" fill-opacity="1" style="mix-blend-mode:passthrough"/></g><g><path d="M23.09131990966797,30.99999875L6.349235909667969,30.99999875C5.981413909667968,30.99999875,5.683219909667969,30.70180875,5.683219909667969,30.33398475C5.683219909667969,29.96616175,5.981413909667968,29.66796875,6.349235909667969,29.66796875L23.09131990966797,29.66796875C23.45921990966797,29.66796875,23.75741990966797,29.96616175,23.75741990966797,30.33398475C23.75741990966797,30.70180875,23.45921990966797,30.99999875,23.09131990966797,30.99999875Z" fill="#33CCCC" fill-opacity="1" style="mix-blend-mode:passthrough"/></g></g><g><path d="M21.3434,13.356764404296875C20.8245,13.356764404296875,20.3401,13.507524404296875,19.9317,13.767514404296875C19.6087,12.677244404296875,18.5977,11.879544404296874,17.404,11.879544404296874C16.8851,11.879544404296874,16.4007,12.030304404296874,15.9924,12.290294404296874C15.6693,11.200024404296876,14.6584,10.402324404296875,13.4647,10.402324404296875C12.9909,10.402324404296875,12.5458,10.528074404296875,12.1611,10.747864404296875L12.1611,6.144184404296875C12.1611,4.690874404296875,10.9787,3.508514404296875,9.52543,3.508514404296875C8.07212,3.508514404296875,6.88977,4.690874404296875,6.88977,6.144184404296875L6.88977,18.034414404296875C6.30185,17.311614404296876,5.88596,16.827714404296877,5.5647,16.506314404296873C4.82584,15.767514404296875,3.91352,15.326514404296875,3.12405,15.326514404296875C1.08568,15.326514404296875,0.26067,16.383914404296874,0.115963,16.595814404296874C-0.0335878,16.814914404296875,-0.0389158,17.101814404296874,0.102461,17.326314404296873C0.12886,17.368114404296875,0.943578,18.790214404296876,3.49872,24.630414404296875C4.07833,25.955314404296875,4.83408,26.823214404296873,5.50082,27.588914404296876C6.13808,28.320714404296876,6.6342,28.892814404296875,6.81481,29.668014404296876L8.17251,29.668014404296876C7.98203,28.410914404296875,7.26195,27.583014404296875,6.50541,26.714114404296875C5.87197,25.986714404296876,5.21692,25.234514404296874,4.7191,24.096514404296876C3.40905,21.102014404296874,2.44102,18.959814404296875,1.84191,17.729114404296872C1.71513,17.468614404296876,1.6056,17.250814404296875,1.51441,17.077814404296873C1.79826,16.884314404296873,2.3051,16.658414404296877,3.12405,16.658414404296877C3.55472,16.658414404296877,4.143,16.968414404296873,4.62277,17.448214404296877C5.07905,17.904514404296876,5.82226,18.818514404296877,7.03405,20.345714404296874C7.21012,20.567614404296876,7.5074,20.653814404296874,7.77496,20.560614404296874C8.04252,20.467314404296875,8.22174,20.215014404296873,8.22174,19.931714404296876L8.22174,6.144124404296875C8.22174,5.425304404296875,8.80656,4.840484404296875,9.52537,4.840484404296875C10.2442,4.840484404296875,10.829,5.425304404296875,10.829,6.144124404296875L10.829,16.977214404296873C10.829,17.345014404296876,11.1272,17.643214404296877,11.495,17.643214404296877C11.8628,17.643214404296877,12.161,17.345014404296876,12.161,16.977214404296873L12.161,13.037924404296875C12.161,12.319114404296876,12.7459,11.734294404296875,13.4647,11.734294404296875C14.1835,11.734294404296875,14.7683,12.319114404296876,14.7683,13.037924404296875L14.7683,16.977214404296873C14.7683,17.345014404296876,15.0665,17.643214404296877,15.4343,17.643214404296877C15.8021,17.643214404296877,16.1003,17.345014404296876,16.1003,16.977214404296873L16.1003,14.515114404296876C16.1003,13.796314404296876,16.6852,13.211514404296874,17.404,13.211514404296874C18.1228,13.211514404296874,18.7076,13.796314404296876,18.7076,14.515114404296876L18.7076,16.977214404296873C18.7076,17.345014404296876,19.0058,17.643214404296877,19.3736,17.643214404296877C19.7414,17.643214404296877,20.0396,17.345014404296876,20.0396,16.977214404296873L20.0396,15.992414404296875C20.0396,15.273514404296876,20.6245,14.688714404296874,21.3433,14.688714404296874C22.0621,14.688714404296874,22.6469,15.273514404296876,22.6469,15.992414404296875L22.6469,23.871014404296876C22.6469,25.288814404296875,22.2862,26.202914404296877,21.9044,27.170614404296874C21.6078,27.922114404296874,21.3034,28.695014404296874,21.2038,29.668014404296876L22.5446,29.668014404296876C22.6384,28.941614404296875,22.8764,28.336114404296875,23.1434,27.659614404296875C23.535,26.667114404296875,23.9789,25.542214404296875,23.9789,23.871114404296875L23.9789,15.992414404296875C23.9791,14.539114404296875,22.7967,13.356764404296875,21.3434,13.356764404296875Z" fill="#FFFFFF" fill-opacity="1" style="mix-blend-mode:passthrough"/></g></g></svg>