<svg xmlns="http://www.w3.org/2000/svg" xmlns:xlink="http://www.w3.org/1999/xlink" fill="none" version="1.1" width="30" height="24" viewBox="0 0 30 24"><defs><clipPath id="master_svg0_25_0033"><rect x="0" y="0" width="30" height="24" rx="0"/></clipPath><mask id="master_svg1_25_0040" style="mask-type:alpha" maskUnits="objectBoundingBox"><g><rect x="0" y="0" width="30" height="24" rx="0" fill="#FFFFFF" fill-opacity="1"/></g></mask></defs><g clip-path="url(#master_svg0_25_0033)" mask="url(#master_svg1_25_0040)"><g transform="matrix(1,0,0,-1,0,46.03125)"><g><path d="M0,26.625005C0.09375,27.421875,0.890625,27.515625,0.890625,27.515625L29.1094,27.515625C29.9062,27.421875,30,26.625005,30,26.625005C29.9531,25.078125,28.9688,24.046875,28.9688,24.046875C27.9375,23.0625,26.3906,23.015625,26.3906,23.015625L3.60938,23.015625C2.0625,23.0625,1.07812,24.046875,1.07812,24.046875C0.046875,25.078125,0,26.625005,0,26.625005ZM3,41.015625C3.04688,42.281225,3.89062,43.125025,3.89062,43.125025C4.73438,43.968725,6,44.015625,6,44.015625L24,44.015625C25.2656,43.968725,26.1094,43.125025,26.1094,43.125025C26.9531,42.281225,27,41.015625,27,41.015625L27,29.015625L24,29.015625L24,41.015625L6,41.015625L6,29.015625L3,29.015625L3,41.015625ZM13.1719,35.718725L11.7188,34.265625L13.1719,32.812505C13.8281,32.015625,13.1719,31.218745,13.1719,31.218745C12.375,30.562505,11.5781,31.218745,11.5781,31.218745L9.32812,33.468725C8.67188,34.265625,9.32812,35.062525,9.32812,35.062525L11.5781,37.312525C12.375,37.968725,13.1719,37.312525,13.1719,37.312525C13.8281,36.515625,13.1719,35.718725,13.1719,35.718725ZM18.4219,37.312525L20.6719,35.062525C21.3281,34.265625,20.6719,33.468725,20.6719,33.468725L18.4219,31.218745C17.625,30.562505,16.8281,31.218745,16.8281,31.218745C16.1719,32.015625,16.8281,32.812505,16.8281,32.812505L18.2812,34.265625L16.8281,35.718725C16.1719,36.515625,16.8281,37.312525,16.8281,37.312525C17.625,37.968725,18.4219,37.312525,18.4219,37.312525Z" fill-rule="evenodd" fill="#4053FF" fill-opacity="1"/></g></g></g></svg>