<svg xmlns="http://www.w3.org/2000/svg" xmlns:xlink="http://www.w3.org/1999/xlink" fill="none" version="1.1" width="20" height="27" viewBox="0 0 20 27"><defs><clipPath id="master_svg0_25_0025"><rect x="0" y="0" width="20" height="27" rx="0"/></clipPath><mask id="master_svg1_25_0032" style="mask-type:alpha" maskUnits="objectBoundingBox"><g><rect x="0" y="0" width="20" height="27" rx="0" fill="#FFFFFF" fill-opacity="1"/></g></mask></defs><g clip-path="url(#master_svg0_25_0025)" mask="url(#master_svg1_25_0032)"><g transform="matrix(1,0,0,-1,0,55.16903305053711)"><g><path d="M2.480914653891325,36.71219134796142L0.303696853891325,31.280541347961424C0.303696853891325,31.280541347961424,0.151798653891325,30.858671347961426,0.404962653891325,30.436791347961424C0.404962653891325,30.436791347961424,0.7087606538913249,30.067651347961426,1.164456653891325,30.120391347961426L3.999894653891325,30.542261347961425L5.670784653891325,27.958279347961426C5.670784653891325,27.958279347961426,5.923954653891325,27.536404747961427,6.379644653891325,27.589139167961427C6.379644653891325,27.589139167961427,6.885974653891325,27.641873547961424,7.088504653891325,28.116483347961427L8.961924653891325,32.809841347961424C8.961924653891325,32.809841347961424,8.556864653891324,32.968041347961424,8.151794653891326,33.231721347961425L7.240404653891325,33.811791347961424L7.240404653891325,33.864531347961425L6.126484653891325,33.75906134796143C6.126484653891325,33.75906134796143,4.050534653891325,33.75906134796143,2.987244653891325,35.65750134796143L2.531544653891325,36.65945134796142C2.531544653891325,36.65945134796142,2.531544653891325,36.71219134796142,2.480914653891325,36.71219134796142ZM12.860614653891325,28.116483347961427L10.987214653891325,32.809841347961424C11.392314653891326,32.968041347961424,11.797414653891325,33.231721347961425,11.797414653891325,33.231721347961425L12.708714653891326,33.811791347961424L12.708714653891326,33.864531347961425L13.822714653891325,33.75906134796143C15.898614653891325,33.75906134796143,16.961914653891323,35.65750134796143,16.961914653891323,35.65750134796143L17.417614653891324,36.65945134796142C17.417614653891324,36.71219134796142,17.468214653891327,36.71219134796142,17.468214653891327,36.71219134796142L19.645514653891325,31.280541347961424C19.797414653891327,30.858671347961426,19.544214653891324,30.436791347961424,19.544214653891324,30.436791347961424C19.240414653891325,30.067651347961426,18.784714653891324,30.120391347961426,18.784714653891324,30.120391347961426L15.949314653891324,30.542261347961425L14.278414653891325,27.958279347961426C14.025214653891325,27.589139167961427,13.569514653891325,27.589139167961427,13.569514653891325,27.589139167961427C13.063214653891325,27.641873547961424,12.860614653891325,28.116483347961427,12.860614653891325,28.116483347961427ZM10.886014653891324,54.27276134796142C10.886014653891324,54.27276134796142,9.974584653891325,54.852761347961426,9.063194653891324,54.27276134796142L8.151794653891326,53.692661347961426C8.151794653891326,53.692661347961426,7.696104653891325,53.376261347961425,7.139144653891325,53.376261347961425L6.075844653891325,53.481761347961424C6.075844653891325,53.481761347961424,4.961924653891325,53.481761347961424,4.455594653891325,52.47976134796143L3.949264653891325,51.477761347961426C3.949264653891325,51.477761347961426,3.696104653891325,51.003161347961424,3.240404653891325,50.73956134796143L2.278384653891325,50.21216134796143C2.278384653891325,50.21216134796143,1.3163546538913249,49.68486134796143,1.3163546538913249,48.52466134796143L1.417624653891325,47.41726134796143C1.417624653891325,47.41726134796143,1.417624653891325,46.83716134796143,1.113823653891325,46.362561347961424L0.5568616538913249,45.41336134796143C0.5568616538913249,45.41336134796143,-0.00010034610867498683,44.46416134796142,0.5568616538913249,43.514961347961425L1.113823653891325,42.565661347961424C1.113823653891325,42.565661347961424,1.417624653891325,42.09106134796143,1.417624653891325,41.51106134796143L1.3163546538913249,40.35086134796143C1.3163546538913249,40.35086134796143,1.3163546538913249,39.24346134796143,2.278384653891325,38.71606134796143L3.240404653891325,38.188761347961425C3.240404653891325,38.188761347961425,3.696104653891325,37.925061347961424,3.949264653891325,37.450471347961425L4.455594653891325,36.44851134796143C4.455594653891325,36.44851134796143,4.961924653891325,35.44656134796143,6.075844653891325,35.44656134796143L7.139144653891325,35.552031347961425C7.139144653891325,35.552031347961425,7.696104653891325,35.552031347961425,8.151794653891326,35.23562134796143L9.063194653891324,34.60281134796143C9.063194653891324,34.60281134796143,9.974584653891325,34.022731347961425,10.886014653891324,34.60281134796143L11.797414653891325,35.23562134796143C11.797414653891325,35.23562134796143,12.253014653891325,35.552031347961425,12.810014653891326,35.552031347961425L13.923914653891325,35.44656134796143C13.923914653891325,35.44656134796143,14.987214653891325,35.44656134796143,15.493614653891324,36.395781347961425L15.999914653891326,37.450471347961425C15.999914653891326,37.450471347961425,16.253114653891323,37.925061347961424,16.708714653891324,38.188761347961425L17.670814653891323,38.71606134796143C17.670814653891323,38.71606134796143,18.632814653891327,39.24346134796143,18.632814653891327,40.40356134796143L18.531514653891325,41.51106134796143C18.531514653891325,41.51106134796143,18.531514653891325,42.09106134796143,18.835314653891324,42.565661347961424L19.442914653891325,43.514961347961425C19.442914653891325,43.514961347961425,19.999914653891324,44.46416134796142,19.442914653891325,45.41336134796143L18.835314653891324,46.362561347961424C18.835314653891324,46.362561347961424,18.531514653891325,46.83716134796143,18.531514653891325,47.41726134796143L18.632814653891327,48.52466134796143C18.632814653891327,48.52466134796143,18.632814653891327,49.68486134796143,17.721414653891326,50.21216134796143L16.708714653891324,50.73956134796143C16.708714653891324,50.73956134796143,16.253114653891323,51.003161347961424,15.999914653891326,51.477761347961426L15.493614653891324,52.47976134796143C15.493614653891324,52.47976134796143,14.987214653891325,53.481761347961424,13.873314653891326,53.481761347961424L12.810014653891326,53.376261347961425C12.810014653891326,53.376261347961425,12.253014653891325,53.376261347961425,11.797414653891325,53.692661347961426L10.886014653891324,54.27276134796142ZM11.999914653891326,48.102761347961426C11.999914653891326,48.102761347961426,13.974614653891326,46.83716134796143,14.025214653891325,44.46416134796142C14.025214653891325,44.46416134796142,13.974614653891326,42.09106134796143,11.999914653891326,40.82546134796142C11.999914653891326,40.82546134796142,9.974584653891325,39.66536134796142,7.949264653891325,40.82546134796142C7.949264653891325,40.82546134796142,5.974584653891325,42.09106134796143,5.923954653891325,44.46416134796142C5.923954653891325,44.46416134796142,5.974584653891325,46.83716134796143,7.949264653891325,48.102761347961426C7.949264653891325,48.102761347961426,9.974584653891325,49.26296134796142,11.999914653891326,48.102761347961426Z" fill-rule="evenodd" fill="#4053FF" fill-opacity="1"/></g></g></g></svg>