<svg xmlns="http://www.w3.org/2000/svg" xmlns:xlink="http://www.w3.org/1999/xlink" fill="none" version="1.1" width="30" height="24" viewBox="0 0 30 24"><defs><clipPath id="master_svg0_25_0013"><rect x="0" y="0" width="30" height="24" rx="0"/></clipPath><mask id="master_svg1_25_0022" style="mask-type:alpha" maskUnits="objectBoundingBox"><g><rect x="0" y="0" width="30" height="24" rx="0" fill="#FFFFFF" fill-opacity="1"/></g></mask></defs><g clip-path="url(#master_svg0_25_0013)" mask="url(#master_svg1_25_0022)"><g transform="matrix(1,0,0,-1,0,49.03125)"><g><path d="M7.82812,30.187505C7.82812,30.187505,6.04688,28.406245,6,25.781245C6,25.781245,6.09375,24.609375,7.26562,24.515625L22.7344,24.515625C22.7344,24.515625,23.9062,24.609375,24,25.781245C24,25.781245,23.9531,28.406245,22.1719,30.187505C22.1719,30.187505,20.3906,31.968745,17.7656,32.015625L12.2344,32.015625C12.2344,32.015625,9.60938,31.968745,7.82812,30.187505ZM1.45312,38.062525C1.45312,38.062525,0.046875,36.656225,0,34.500005C0,34.500005,0.09375,33.609375,0.984375,33.515625L11.0156,33.515625C11.0156,33.515625,9.09375,35.250025,9,38.015625C9,38.015625,9,38.531225,9.09375,39.046825C9.09375,39.046825,8.10938,39.515625,6.98438,39.515625L5.01562,39.515625C5.01562,39.515625,2.85938,39.468725,1.45312,38.062525ZM10.5,38.015625C10.5,39.234425,11.1094,40.265625,11.1094,40.265625C11.7188,41.296825,12.75,41.906225,12.75,41.906225C13.8281,42.515625,15,42.515625,15,42.515625C16.1719,42.515625,17.25,41.906225,17.25,41.906225C18.2812,41.296825,18.8906,40.265625,18.8906,40.265625C19.5,39.234425,19.5,38.015625,19.5,38.015625C19.5,36.796825,18.8906,35.765625,18.8906,35.765625C18.2812,34.734425,17.25,34.125005,17.25,34.125005C16.1719,33.515625,15,33.515625,15,33.515625C13.8281,33.515625,12.75,34.125005,12.75,34.125005C11.7188,34.734425,11.1094,35.765625,11.1094,35.765625C10.5,36.796825,10.5,38.015625,10.5,38.015625ZM18.9844,33.515625C20.9062,35.250025,21,38.015625,21,38.015625C21,38.531225,20.9062,39.046825,20.9062,39.046825C21.8906,39.515625,23.0156,39.515625,23.0156,39.515625L24.9844,39.515625C27.1406,39.468725,28.5469,38.062525,28.5469,38.062525C29.9531,36.656225,30,34.500005,30,34.500005C29.9062,33.609375,29.0156,33.515625,29.0156,33.515625L18.9844,33.515625ZM9.98438,46.640625C9.98438,46.640625,8.85938,48.468725,6.75,48.515625C6.75,48.515625,4.64062,48.468725,3.51562,46.640625C3.51562,46.640625,2.48438,44.765625,3.51562,42.890625C3.51562,42.890625,4.64062,41.062525,6.75,41.015625C6.75,41.015625,8.85938,41.062525,9.98438,42.890625C9.98438,42.890625,11.0156,44.765625,9.98438,46.640625ZM27.2344,46.640625C27.2344,46.640625,26.1094,48.468725,24,48.515625C24,48.515625,21.8906,48.468725,20.7656,46.640625C20.7656,46.640625,19.7344,44.765625,20.7656,42.890625C20.7656,42.890625,21.8906,41.062525,24,41.015625C24,41.015625,26.1094,41.062525,27.2344,42.890625C27.2344,42.890625,28.2656,44.765625,27.2344,46.640625Z" fill-rule="evenodd" fill="#4053FF" fill-opacity="1"/></g></g></g></svg>