<svg xmlns="http://www.w3.org/2000/svg" xmlns:xlink="http://www.w3.org/1999/xlink" fill="none" version="1.1" width="21" height="24" viewBox="0 0 21 24"><defs><clipPath id="master_svg0_25_0005"><rect x="0" y="0" width="21" height="24" rx="0"/></clipPath><mask id="master_svg1_25_0012" style="mask-type:alpha" maskUnits="objectBoundingBox"><g><rect x="0" y="0" width="21" height="24" rx="0" fill="#FFFFFF" fill-opacity="1"/></g></mask></defs><g clip-path="url(#master_svg0_25_0005)" mask="url(#master_svg1_25_0012)"><g transform="matrix(1,0,0,-1,0,49.03125)"><g><path d="M1.3125,47.203125C1.3125,47.203125,2.57812,48.468725,4.5,48.515625L19.5,48.515625C19.5,48.515625,20.1562,48.515625,20.5781,48.093725C20.5781,48.093725,21,47.671825,21,47.015625L21,32.015625C21,32.015625,21,31.359375,20.5781,30.937505C20.5781,30.937505,20.1562,30.515625,19.5,30.515625L19.5,27.515625C19.5,27.515625,20.1562,27.515625,20.5781,27.093745C20.5781,27.093745,21,26.671875,21,26.015625C21,26.015625,21,25.359375,20.5781,24.9375C20.5781,24.9375,20.1562,24.515625,19.5,24.515625L4.5,24.515625C4.5,24.515625,2.57812,24.5625,1.3125,25.828125C1.3125,25.828125,0.046875,27.093745,0,29.015625L0,44.015625C0,44.015625,0.046875,45.937525,1.3125,47.203125ZM4.5,30.515625L16.5,30.515625L16.5,27.515625L4.5,27.515625C3.84375,27.515625,3.42188,27.937505,3.42188,27.937505C3,28.359375,3,29.015625,3,29.015625C3,29.671875,3.42188,30.093745,3.42188,30.093745C3.84375,30.515625,4.5,30.515625,4.5,30.515625ZM15.75,39.515625L6.75,39.515625C6.75,39.515625,6.04688,39.468725,6,38.765625C6,38.765625,6.04688,38.062525,6.75,38.015625L15.75,38.015625C15.75,38.015625,16.4531,38.062525,16.5,38.765625C16.5,38.765625,16.4531,39.468725,15.75,39.515625ZM6.75,42.515625C6.75,42.515625,6.04688,42.468725,6,41.765625C6,41.765625,6.04688,41.062525,6.75,41.015625L15.75,41.015625C15.75,41.015625,16.4531,41.062525,16.5,41.765625C16.5,41.765625,16.4531,42.468725,15.75,42.515625L6.75,42.515625Z" fill-rule="evenodd" fill="#4053FF" fill-opacity="1"/></g></g></g></svg>