<svg xmlns="http://www.w3.org/2000/svg" xmlns:xlink="http://www.w3.org/1999/xlink" fill="none" version="1.1" width="24" height="24" viewBox="0 0 24 24"><defs><clipPath id="master_svg0_25_856"><rect x="0" y="0" width="24" height="24" rx="0"/></clipPath></defs><g clip-path="url(#master_svg0_25_856)"><g><g><path d="M16.06586,7.934136Q14.381730000000001,6.25,12,6.25Q9.618269999999999,6.25,7.934136,7.934136Q6.25,9.618269999999999,6.25,12Q6.25,14.381730000000001,7.934136,16.06586Q9.618269999999999,17.75,12,17.75Q14.381730000000001,17.75,16.06586,16.06586Q17.75,14.381730000000001,17.75,12Q17.75,9.618269999999999,16.06586,7.934136ZM8.9948,8.9948Q10.23959,7.75,12,7.75Q13.76041,7.75,15.0052,8.9948Q16.25,10.23959,16.25,12Q16.25,13.76041,15.0052,15.0052Q13.76041,16.25,12,16.25Q10.23959,16.25,8.9948,15.0052Q7.75,13.76041,7.75,12Q7.75,10.23959,8.9948,8.9948Z" fill-rule="evenodd" fill="#15151E" fill-opacity="1"/></g><g><path d="M12.4966,2.562074Q12.6174,2.4553,12.6837,2.308285Q12.75,2.161269,12.75,2Q12.75,1.9261314999999999,12.7356,1.853682Q12.7212,1.781233,12.6929,1.712987Q12.6646,1.644742,12.6236,1.583322Q12.5826,1.521903,12.5303,1.46967Q12.4781,1.417437,12.4167,1.376398Q12.3553,1.335359,12.287,1.30709Q12.2188,1.278822,12.1463,1.264411Q12.0739,1.25,12,1.25Q11.86283,1.25,11.73453,1.298553Q11.60624,1.3471060000000001,11.50344,1.437926Q10.91632,1.9566157,10.78135,2.689087Q10.58562,3.75124,11.50344,4.56207Q11.60624,4.65289,11.73453,4.7014499999999995Q11.86283,4.75,12,4.75Q12.0739,4.75,12.1463,4.73559Q12.2188,4.72118,12.287,4.6929099999999995Q12.3553,4.66464,12.4167,4.6236Q12.4781,4.58256,12.5303,4.53033Q12.5826,4.4780999999999995,12.6236,4.4166799999999995Q12.6646,4.3552599999999995,12.6929,4.28701Q12.7212,4.21877,12.7356,4.146319999999999Q12.75,4.073869999999999,12.75,4Q12.75,3.83873,12.6837,3.69172Q12.6174,3.5446999999999997,12.4966,3.4379299999999997Q12.2145,3.1887600000000003,12.2565,2.960913Q12.2974,2.7387420000000002,12.4949,2.5635120000000002Q12.4957,2.562792,12.4966,2.562074ZM17.2556,6.04396L17.255699999999997,6.0448Q17.2601,6.11561,17.2776,6.18434Q17.2952,6.25307,17.325400000000002,6.31728Q17.3555,6.3815,17.397199999999998,6.43892Q17.4389,6.49634,17.4905,6.54493Q17.5422,6.59353,17.6021,6.63156Q17.662,6.6696,17.728,6.69573Q17.7939,6.72187,17.863599999999998,6.73517Q17.9333,6.74847,18.0042,6.74847Q18.0781,6.74847,18.1506,6.73406Q18.223,6.71965,18.2912,6.69138Q18.3595,6.66311,18.4209,6.62207Q18.4823,6.58103,18.5346,6.5288Q18.5868,6.47657,18.6278,6.41515Q18.6689,6.35373,18.6971,6.28548Q18.7254,6.21724,18.7398,6.14479Q18.7542,6.07234,18.7542,5.99847Q18.7542,5.97529,18.7528,5.95215Q18.7267,5.53046,18.9487,5.37758Q19.1585,5.23301,19.4537,5.2512799999999995Q19.4768,5.25271,19.5,5.25271Q19.5739,5.25271,19.6463,5.238300000000001Q19.7188,5.22389,19.787,5.19562Q19.8553,5.16735,19.9167,5.12631Q19.9781,5.0852699999999995,20.0303,5.03304Q20.0826,4.98081,20.1236,4.91939Q20.1646,4.85797,20.1929,4.78972Q20.2212,4.72148,20.2356,4.64903Q20.25,4.57658,20.25,4.50271Q20.25,4.43177,20.2367,4.362080000000001Q20.2234,4.29239,20.1973,4.22644Q20.1711,4.16048,20.1331,4.1006Q20.0951,4.04071,20.0465,3.98902Q19.9979,3.93733,19.9405,3.89567Q19.883,3.854,19.8188,3.82385Q19.7546,3.79369,19.6859,3.77611Q19.6171,3.75852,19.5463,3.75414Q18.7342,3.70389,18.0978,4.14227Q17.177500000000002,4.7761700000000005,17.2556,6.04396ZM5.7512799999999995,4.54633Q5.75271,4.52318,5.75271,4.5Q5.75271,4.426130000000001,5.738300000000001,4.353680000000001Q5.72389,4.28123,5.69562,4.21299Q5.66735,4.1447400000000005,5.62632,4.0833200000000005Q5.58528,4.0219000000000005,5.53304,3.96967Q5.48081,3.91744,5.41939,3.8764000000000003Q5.35797,3.83536,5.2897300000000005,3.80709Q5.22148,3.77882,5.14903,3.76441Q5.07658,3.75,5.00271,3.75Q4.93177,3.75,4.862080000000001,3.7633Q4.792400000000001,3.77661,4.72644,3.80274Q4.660489999999999,3.82887,4.6006,3.86691Q4.54071,3.90495,4.48902,3.9535400000000003Q4.43733,4.00213,4.39567,4.05955Q4.354,4.11697,4.32385,4.18119Q4.29369,4.2454,4.27611,4.3141300000000005Q4.25853,4.3828700000000005,4.25415,4.45367Q4.20385,5.26635,4.64254,5.903230000000001Q5.27705,6.8244,6.54633,6.74585Q6.61713,6.74147,6.68586,6.72389Q6.7546,6.70631,6.81881,6.67615Q6.88303,6.646,6.94045,6.60433Q6.99787,6.56267,7.04646,6.51098Q7.09505,6.45929,7.13309,6.3994Q7.17113,6.33951,7.19726,6.27356Q7.22339,6.2076,7.2367,6.13792Q7.25,6.06823,7.25,5.99729Q7.25,5.92342,7.23559,5.85097Q7.22118,5.77852,7.19291,5.7102699999999995Q7.16464,5.64203,7.1236,5.58061Q7.08256,5.51919,7.03033,5.46696Q6.9781,5.41472,6.91668,5.37368Q6.85526,5.33265,6.78701,5.30438Q6.71877,5.27611,6.64632,5.261699999999999Q6.57387,5.24729,6.5,5.24729Q6.47682,5.24729,6.45367,5.2487200000000005Q6.03113,5.27487,5.8778500000000005,5.05234Q5.7329799999999995,4.84202,5.7512799999999995,4.54633ZM19.4381,11.50325L19.4379,11.50344Q19.3471,11.60624,19.2986,11.73453Q19.25,11.86283,19.25,12Q19.25,12.0739,19.2644,12.1463Q19.2788,12.2188,19.3071,12.287Q19.3354,12.3553,19.3764,12.4167Q19.4174,12.4781,19.4697,12.5303Q19.5219,12.5826,19.5833,12.6236Q19.6447,12.6646,19.713,12.6929Q19.7812,12.7212,19.8537,12.7356Q19.9261,12.75,20,12.75Q20.1613,12.75,20.3083,12.6837Q20.4553,12.6174,20.5621,12.4966Q20.8112,12.2145,21.0391,12.2565Q21.2622,12.2976,21.4379,12.4966Q21.5447,12.6174,21.6917,12.6837Q21.8387,12.75,22,12.75Q22.0739,12.75,22.1463,12.7356Q22.2188,12.7212,22.287,12.6929Q22.3553,12.6646,22.4167,12.6236Q22.4781,12.5826,22.5303,12.5303Q22.5826,12.4781,22.6236,12.4167Q22.6646,12.3553,22.6929,12.287Q22.7212,12.2188,22.7356,12.1463Q22.75,12.0739,22.75,12Q22.75,11.86283,22.7014,11.73453Q22.6529,11.60624,22.5621,11.50344Q22.0434,10.91632,21.3109,10.78135Q20.2492,10.5857,19.4385,11.50274L19.4381,11.50325ZM2.56311,11.00461Q2.81171,11.28539,3.03909,11.24349Q3.2621700000000002,11.20238,3.4379299999999997,11.00344Q3.5446999999999997,10.88258,3.69171,10.81629Q3.83873,10.75,4,10.75Q4.073869999999999,10.75,4.146319999999999,10.76441Q4.21877,10.77882,4.28701,10.80709Q4.3552599999999995,10.83536,4.4166799999999995,10.8764Q4.4780999999999995,10.91744,4.53033,10.96967Q4.58256,11.0219,4.6236,11.08332Q4.66464,11.14474,4.6929099999999995,11.21299Q4.72118,11.28123,4.73559,11.35368Q4.75,11.42613,4.75,11.5Q4.75,11.63717,4.7014499999999995,11.76547Q4.65289,11.89376,4.56207,11.99656Q4.0433900000000005,12.5837,3.31091,12.7187Q2.249104,12.9143,1.438448,11.99715L1.437926,11.99656Q1.3471060000000001,11.89376,1.298553,11.76547Q1.25,11.63717,1.25,11.5Q1.25,11.42613,1.264411,11.35368Q1.278822,11.28123,1.30709,11.21299Q1.335359,11.14474,1.376398,11.08332Q1.417437,11.0219,1.46967,10.96967Q1.521903,10.91744,1.583322,10.8764Q1.644742,10.83536,1.712987,10.80709Q1.781233,10.77882,1.853682,10.76441Q1.9261314999999999,10.75,2,10.75Q2.161269,10.75,2.308285,10.81629Q2.4553,10.88258,2.562074,11.00344L2.56311,11.00461ZM6.24433,17.453699999999998Q6.29459,18.2658,5.856199999999999,18.9022Q5.22254,19.8222,3.95548,19.7444L3.95389,19.7443L3.95367,19.7443L4.04633,18.2472L4.04956,18.2474Q4.4686,18.2724,4.62089,18.0513Q4.76546,17.8415,4.74719,17.546300000000002Q4.745760000000001,17.5232,4.745760000000001,17.5Q4.745760000000001,17.426099999999998,4.7601700000000005,17.3537Q4.77458,17.2812,4.802849999999999,17.213Q4.83112,17.1447,4.87216,17.0833Q4.9132,17.021900000000002,4.96543,16.9697Q5.017659999999999,16.9174,5.079079999999999,16.8764Q5.140499999999999,16.8354,5.20875,16.8071Q5.27699,16.7788,5.3494399999999995,16.764400000000002Q5.421889999999999,16.75,5.495760000000001,16.75Q5.5667100000000005,16.75,5.6363900000000005,16.7633Q5.70608,16.776600000000002,5.77203,16.8027Q5.83799,16.8289,5.89787,16.8669Q5.95776,16.904899999999998,6.00945,16.9535Q6.06114,17.0021,6.10281,17.0596Q6.14447,17.117,6.17463,17.1812Q6.20478,17.2454,6.22237,17.3141Q6.23995,17.3829,6.24433,17.453699999999998ZM12.4966,19.4379Q13.0837,19.9566,13.2187,20.6891Q13.4143,21.7508,12.4973,22.5615L12.4968,22.5619L12.4966,22.5621Q12.3938,22.6529,12.2655,22.7014Q12.1372,22.75,12,22.75Q11.92613,22.75,11.85368,22.7356Q11.78123,22.7212,11.71299,22.6929Q11.64474,22.6646,11.58332,22.6236Q11.5219,22.5826,11.46967,22.5303Q11.41744,22.4781,11.3764,22.4167Q11.33536,22.3553,11.30709,22.287Q11.27882,22.2188,11.26441,22.1463Q11.25,22.0739,11.25,22Q11.25,21.8387,11.31629,21.6917Q11.38258,21.5447,11.50344,21.4379L11.50416,21.4373L11.50455,21.4369Q11.78539,21.1883,11.74349,20.9609Q11.70238,20.7378,11.50344,20.5621Q11.38258,20.4553,11.31629,20.3083Q11.25,20.1613,11.25,20Q11.25,19.9261,11.26441,19.8537Q11.27882,19.7812,11.30709,19.713Q11.33536,19.6447,11.3764,19.5833Q11.41744,19.5219,11.46967,19.4697Q11.5219,19.4174,11.58332,19.3764Q11.64474,19.3354,11.71299,19.3071Q11.78123,19.2788,11.85368,19.2644Q11.92613,19.25,12,19.25Q12.1372,19.25,12.2655,19.2986Q12.3938,19.3471,12.4966,19.4379ZM18.7475,18.8664L18.7474,18.8678Q18.7458,18.8923,18.7458,18.9168Q18.7458,18.9906,18.7602,19.0631Q18.7746,19.1355,18.8028,19.2038Q18.8311,19.272,18.8722,19.3335Q18.9132,19.3949,18.9654,19.4471Q19.0177,19.4993,19.0791,19.5404Q19.1405,19.5814,19.2087,19.6097Q19.277,19.638,19.3494,19.6524Q19.4219,19.6668,19.4958,19.6668Q19.5666,19.6668,19.6361,19.6535Q19.7056,19.6403,19.7715,19.6143Q19.8373,19.5882,19.8971,19.5504Q19.9569,19.5125,20.0086,19.4641Q20.0602,19.4157,20.1019,19.3585Q20.1436,19.3013,20.1738,19.2372Q20.2041,19.1732,20.2218,19.1047Q20.2396,19.0362,20.2442,18.9655L18.7475,18.8664Z" fill-rule="evenodd" fill="#15151E" fill-opacity="1"/></g></g></g></svg>