<svg xmlns="http://www.w3.org/2000/svg" xmlns:xlink="http://www.w3.org/1999/xlink" fill="none" version="1.1" width="35" height="35" viewBox="0 0 35 35"><defs><clipPath id="master_svg0_25_0052"><rect x="0" y="0" width="35" height="35" rx="0"/></clipPath></defs><g clip-path="url(#master_svg0_25_0052)"><g><path d="M26.25,17.5C21.4171,17.5,17.5,21.4171,17.5,26.25C17.5,31.0829,21.4171,35,26.25,35C31.0829,35,35,31.0829,35,26.25C35,21.4171,31.0829,17.5,26.25,17.5ZM27.1527,29.7704C26.6015,30.3217,25.8694,30.625,25.0906,30.625L25.0877,30.625C24.309,30.625,23.5769,30.3202,23.0271,29.769L20.0929,26.8348L22.155,24.7727L25.0906,27.7083L30.3625,22.4365L32.4246,24.4985L27.1527,29.7704ZM8.02083,10.2083C5.20625,10.2083,2.91667,7.91875,2.91667,5.10417C2.91667,2.28958,5.20625,0,8.02083,0C10.8354,0,13.125,2.28958,13.125,5.10417C13.125,7.91875,10.8354,10.2083,8.02083,10.2083ZM21.1458,10.2083C18.3312,10.2083,16.0417,7.91875,16.0417,5.10417C16.0417,2.28958,18.3312,0,21.1458,0C23.9604,0,26.25,2.28958,26.25,5.10417C26.25,7.91875,23.9604,10.2083,21.1458,10.2083ZM6.5625,16.7708C6.5625,14.8342,7.25375,13.055,8.40146,11.6667L4.375,11.6667C1.96292,11.6667,3.47694e-7,13.6296,3.47694e-7,16.0417L3.47694e-7,20.4167L7.46813,20.4167C6.89354,19.3054,6.5625,18.0658,6.5625,16.7708ZM9.47917,16.7708C9.47917,13.9563,11.7688,11.6667,14.5833,11.6667C17.3425,11.6667,19.5971,13.8673,19.6846,16.6046C17.8165,17.8792,16.3377,19.6817,15.4642,21.7977C15.1783,21.8473,14.8838,21.8735,14.5848,21.8735C11.7702,21.8735,9.48063,19.584,9.48063,16.7694L9.47917,16.7708ZM16.1452,32.0833L5.83333,32.0833L5.83333,27.7083C5.83333,25.2963,7.79625,23.3333,10.2083,23.3333L14.9508,23.3333C14.7117,24.2652,14.5833,25.2423,14.5833,26.25C14.5833,28.3748,15.1521,30.3669,16.1452,32.0833Z" fill="#4053FF" fill-opacity="1" style="mix-blend-mode:passthrough"/></g></g></svg>