<svg xmlns="http://www.w3.org/2000/svg" xmlns:xlink="http://www.w3.org/1999/xlink" fill="none" version="1.1" width="24" height="24.0045166015625" viewBox="0 0 24 24.0045166015625"><g transform="matrix(1,0,0,-1,0,48.009033203125)"><g><path d="M7.875,31.5067766015625C7.875,31.5067766015625,8.29688,28.928646601562498,9.14062,27.053646601562498C9.14062,27.053646601562498,9.89062,25.4130266015625,10.6875,24.6630246015625C10.6875,24.6630246015625,11.4844,23.9598999015625,12,24.0067749015625C12,24.0067749015625,12.5156,23.9598999015625,13.3125,24.6630246015625C13.3125,24.6630246015625,14.1094,25.4130266015625,14.8594,27.053646601562498C14.8594,27.053646601562498,15.7031,28.928646601562498,16.125,31.5067766015625L7.875,31.5067766015625ZM6.32812,31.5067766015625C7.07812,26.9130266015625,8.95312,24.3817746015625,8.95312,24.3817746015625C6.14062,25.178646601562498,4.03125,27.0067766015625,4.03125,27.0067766015625C1.96875,28.8817766015625,0.890625,31.5067766015625,0.890625,31.5067766015625L6.32812,31.5067766015625ZM23.1094,31.5067766015625C22.0312,28.8817766015625,19.9688,27.0067766015625,19.9688,27.0067766015625C17.8594,25.178646601562498,15.0938,24.3817746015625,15.0938,24.3817746015625C16.9219,26.9130266015625,17.6719,31.5067766015625,17.6719,31.5067766015625L23.1094,31.5067766015625ZM6.14062,39.0068166015625L0.375,39.0068166015625C0.375,39.0068166015625,0,37.553616601562496,0,36.0068166015625C0,36.0068166015625,0,34.4599166015625,0.375,33.0067766015625L6.14062,33.0067766015625C6.14062,33.0067766015625,6,34.4599166015625,6,36.0068166015625C6,36.0068166015625,6,37.553616601562496,6.14062,39.0068166015625ZM16.5,36.0068166015625C16.5,34.4599166015625,16.3594,33.0067766015625,16.3594,33.0067766015625L7.64062,33.0067766015625C7.5,34.4599166015625,7.5,36.0068166015625,7.5,36.0068166015625C7.5,37.553616601562496,7.64062,39.0068166015625,7.64062,39.0068166015625L16.3594,39.0068166015625C16.5,37.553616601562496,16.5,36.0068166015625,16.5,36.0068166015625ZM23.625,39.0068166015625L17.8594,39.0068166015625C17.8594,39.0068166015625,18,37.553616601562496,18,36.0068166015625C18,36.0068166015625,18,34.4599166015625,17.8594,33.0067766015625L23.625,33.0067766015625C23.625,33.0067766015625,24,34.4599166015625,24,36.0068166015625C24,36.0068166015625,24,37.553616601562496,23.625,39.0068166015625ZM6.32812,40.506816601562505L0.890625,40.506816601562505C1.96875,43.131816601562505,4.03125,45.006816601562505,4.03125,45.006816601562505C6.14062,46.8349166015625,8.95312,47.631816601562505,8.95312,47.631816601562505C7.07812,45.100516601562504,6.32812,40.506816601562505,6.32812,40.506816601562505ZM14.8594,44.9599166015625C15.7031,43.0849166015625,16.125,40.506816601562505,16.125,40.506816601562505L7.875,40.506816601562505C8.29688,43.0849166015625,9.14062,44.9599166015625,9.14062,44.9599166015625C9.89062,46.600516601562504,10.6875,47.350516601562504,10.6875,47.350516601562504C11.4844,48.053616601562496,12,48.006816601562505,12,48.006816601562505C12.5156,48.053616601562496,13.3125,47.350516601562504,13.3125,47.350516601562504C14.1094,46.600516601562504,14.8594,44.9599166015625,14.8594,44.9599166015625ZM17.6719,40.506816601562505L23.1094,40.506816601562505C23.1094,40.506816601562505,22.0312,43.131816601562505,19.9688,45.006816601562505C19.9688,45.006816601562505,17.8594,46.8349166015625,15.0469,47.631816601562505C15.0469,47.631816601562505,16.9219,45.100516601562504,17.6719,40.506816601562505Z" fill-rule="evenodd" fill="#4053FF" fill-opacity="1"/></g></g></svg>