<svg xmlns="http://www.w3.org/2000/svg" xmlns:xlink="http://www.w3.org/1999/xlink" fill="none" version="1.1" width="18" height="16" viewBox="0 0 18 16"><defs><clipPath id="master_svg0_25_0059"><rect x="0" y="0" width="18" height="16" rx="0"/></clipPath><mask id="master_svg1_25_0064" style="mask-type:alpha" maskUnits="objectBoundingBox"><g><rect x="0" y="0" width="18" height="16" rx="0" fill="#FFFFFF" fill-opacity="1"/></g></mask></defs><g clip-path="url(#master_svg0_25_0059)" mask="url(#master_svg1_25_0064)"><g transform="matrix(1,0,0,-1,0,28.749980926513672)"><g><path d="M16.022,26.031190463256834C16.022,26.031190463256834,17.2418,25.656190463256834,17.6374,24.499990463256836C17.6374,24.499990463256836,17.8022,23.781240463256836,17.9011,22.843740463256836C17.9011,22.843740463256836,17.967,21.874990463256836,18,21.124990463256836L18,19.593740463256836C18,19.593740463256836,17.967,18.843740463256836,17.9011,17.906240463256836C17.9011,17.906240463256836,17.8022,16.937490463256836,17.6374,16.218740463256836C17.6374,16.218740463256836,17.2418,15.062490463256836,16.022,14.718740463256836C16.022,14.718740463256836,15.2308,14.562490463256836,13.5824,14.468740463256836C13.5824,14.468740463256836,11.9341,14.406240463256836,10.5165,14.374990463256836L7.48352,14.374990463256836C7.48352,14.374990463256836,6.06593,14.406240463256836,4.41758,14.468740463256836C4.41758,14.468740463256836,2.76923,14.562490463256836,1.97802,14.718740463256836C1.97802,14.718740463256836,0.758242,15.062490463256836,0.362637,16.218740463256836C0.362637,16.218740463256836,0.197802,16.937490463256836,0.0989011,17.906240463256836C0.0989011,17.906240463256836,0.032967,18.843740463256836,0,19.593740463256836L0,21.124990463256836C0,21.124990463256836,0.032967,21.874990463256836,0.0989011,22.843740463256836C0.0989011,22.843740463256836,0.197802,23.781240463256836,0.362637,24.499990463256836C0.362637,24.499990463256836,0.758242,25.656190463256834,1.97802,26.031190463256834C1.97802,26.031190463256834,2.76923,26.187490463256836,4.41758,26.281190463256834C4.41758,26.281190463256834,6.06593,26.343790463256838,7.48352,26.374990463256836L10.5165,26.374990463256836C10.5165,26.374990463256836,11.9341,26.343790463256838,13.5824,26.281190463256834C13.5824,26.281190463256834,15.2308,26.187490463256836,16.022,26.031190463256834ZM7.15385,22.906240463256836L7.15385,17.812490463256836L11.8681,20.374990463256836L7.15385,22.906240463256836Z" fill-rule="evenodd" fill="#FFFFFF" fill-opacity="1"/></g></g></g></svg>